M48
;Layer_Color=9474304
;FILE_FORMAT=2:3
INCH,LZ
;TYPE=PLATED
T1F00S00C0.012
T2F00S00C0.026
T3F00S00C0.033
T4F00S00C0.039
T5F00S00C0.126
;TYPE=NON_PLATED
T6F00S00C0.035
%
T01
X034Y0273
X0334Y0303
X0348Y03082
X0285Y0311
Y0296
Y0277
X0261Y0274
X02675Y02898
Y03015
X02465Y0305
X0227Y0302
Y0298
X02209Y0301
X02137Y02947
X02083
X02106Y0267
X0214
X0217Y0259
X02318Y02534
X0241Y0259
Y0268
X02337Y028
X02261Y0275
X02081Y02451
X0276Y0258
X02433Y03371
X02237Y0328
T02
X03165Y02535
Y02635
X03265
Y02535
Y03171
X03165
Y03271
X03265
T03
X03165Y02435
X03265
Y02735
X03165
Y03071
X03265
Y03371
X03165
T04
X01732Y0238
X01832
X01932
Y0248
X01832
X01732
Y026
Y027
X01832
X01932
Y026
X01832
X02276Y02479
X02605
T05
X02852Y02456
X018Y034
T06
X019Y02898
Y03071
M30
