G04*
G04 #@! TF.GenerationSoftware,Altium Limited,Altium Designer,18.1.7 (191)*
G04*
G04 Layer_Color=8388736*
%FSLAX24Y24*%
%MOIN*%
G70*
G01*
G75*
%ADD10R,0.0354X0.0197*%
%ADD11R,0.0369X0.0399*%
%ADD12R,0.0374X0.0374*%
%ADD13R,0.1240X0.1004*%
%ADD14O,0.0197X0.0886*%
%ADD15R,0.0399X0.0369*%
%ADD16R,0.0965X0.0965*%
%ADD17R,0.0669X0.1417*%
%ADD18R,0.0669X0.0492*%
%ADD19R,0.0669X0.0492*%
%ADD20R,0.1343X0.0846*%
%ADD21R,0.0965X0.0256*%
%ADD22R,0.1043X0.0846*%
%ADD23R,0.0965X0.0965*%
G04:AMPARAMS|DCode=24|XSize=33.5mil|YSize=76.8mil|CornerRadius=7.1mil|HoleSize=0mil|Usage=FLASHONLY|Rotation=0.000|XOffset=0mil|YOffset=0mil|HoleType=Round|Shape=RoundedRectangle|*
%AMROUNDEDRECTD24*
21,1,0.0335,0.0626,0,0,0.0*
21,1,0.0193,0.0768,0,0,0.0*
1,1,0.0142,0.0096,-0.0313*
1,1,0.0142,-0.0096,-0.0313*
1,1,0.0142,-0.0096,0.0313*
1,1,0.0142,0.0096,0.0313*
%
%ADD24ROUNDEDRECTD24*%
G04:AMPARAMS|DCode=25|XSize=68.9mil|YSize=84.6mil|CornerRadius=18.7mil|HoleSize=0mil|Usage=FLASHONLY|Rotation=180.000|XOffset=0mil|YOffset=0mil|HoleType=Round|Shape=RoundedRectangle|*
%AMROUNDEDRECTD25*
21,1,0.0689,0.0472,0,0,180.0*
21,1,0.0315,0.0846,0,0,180.0*
1,1,0.0374,-0.0157,0.0236*
1,1,0.0374,0.0157,0.0236*
1,1,0.0374,0.0157,-0.0236*
1,1,0.0374,-0.0157,-0.0236*
%
%ADD25ROUNDEDRECTD25*%
%ADD26C,0.0596*%
%ADD27C,0.0535*%
%ADD28C,0.0295*%
%ADD29C,0.0846*%
%ADD30C,0.0335*%
%ADD31C,0.2028*%
D10*
X20828Y30197D02*
D03*
Y30000D02*
D03*
Y29803D02*
D03*
X21372D02*
D03*
Y30000D02*
D03*
Y30197D02*
D03*
D11*
X26495Y26805D02*
D03*
X27105D02*
D03*
X19495Y32500D02*
D03*
X20105D02*
D03*
X27905Y34500D02*
D03*
X27295D02*
D03*
X20195Y25000D02*
D03*
X20805D02*
D03*
X20195Y25777D02*
D03*
X20805D02*
D03*
D12*
X27600Y26780D02*
D03*
Y26130D02*
D03*
D13*
X21000Y32637D02*
D03*
Y34763D02*
D03*
X26600Y34663D02*
D03*
Y32537D02*
D03*
D14*
X22087Y28610D02*
D03*
X22343D02*
D03*
X22598D02*
D03*
X22854D02*
D03*
X23110D02*
D03*
X23366D02*
D03*
X23622D02*
D03*
X23878D02*
D03*
X24134D02*
D03*
X24390D02*
D03*
X24646D02*
D03*
X24902D02*
D03*
X25157D02*
D03*
X25413D02*
D03*
X22087Y31327D02*
D03*
X22343D02*
D03*
X22598D02*
D03*
X22854D02*
D03*
X23110D02*
D03*
X23366D02*
D03*
X23622D02*
D03*
X23878D02*
D03*
X24134D02*
D03*
X24390D02*
D03*
X24646D02*
D03*
X24902D02*
D03*
X25157D02*
D03*
X25413D02*
D03*
D15*
X27500Y29848D02*
D03*
Y29238D02*
D03*
X26750Y30154D02*
D03*
Y30764D02*
D03*
X21671Y27905D02*
D03*
Y27295D02*
D03*
X26100Y26805D02*
D03*
Y26195D02*
D03*
D16*
X28800Y34386D02*
D03*
Y32614D02*
D03*
D17*
X25029Y33709D02*
D03*
D18*
X22371Y32803D02*
D03*
Y33709D02*
D03*
D19*
Y34614D02*
D03*
D20*
X18233Y28093D02*
D03*
Y31593D02*
D03*
D21*
X20024Y30472D02*
D03*
Y30158D02*
D03*
Y29843D02*
D03*
Y29528D02*
D03*
Y29213D02*
D03*
D22*
X19984Y31595D02*
D03*
Y28091D02*
D03*
D23*
X24386Y27500D02*
D03*
X22614D02*
D03*
D24*
X24654Y25339D02*
D03*
X25638D02*
D03*
X23177D02*
D03*
X25146D02*
D03*
X24161D02*
D03*
X23669D02*
D03*
D25*
X26563Y24039D02*
D03*
X22252D02*
D03*
D26*
X31646Y33709D02*
D03*
Y30709D02*
D03*
X32646D02*
D03*
Y33709D02*
D03*
X31646Y27352D02*
D03*
Y24352D02*
D03*
X32646D02*
D03*
Y27352D02*
D03*
D27*
X31646Y32709D02*
D03*
Y31709D02*
D03*
X32646D02*
D03*
Y32709D02*
D03*
X31646Y26352D02*
D03*
Y25352D02*
D03*
X32646D02*
D03*
Y26352D02*
D03*
D28*
X19000Y28976D02*
D03*
Y30709D02*
D03*
D29*
X19323Y27000D02*
D03*
X18323D02*
D03*
X17323D02*
D03*
X19323Y23800D02*
D03*
X18323D02*
D03*
X17323D02*
D03*
X19323Y24800D02*
D03*
X18323D02*
D03*
X17323D02*
D03*
X19323Y26000D02*
D03*
X18323D02*
D03*
X17323D02*
D03*
D30*
X21055Y26700D02*
D03*
X21400D02*
D03*
X21372Y29472D02*
D03*
X20828D02*
D03*
X22087Y30100D02*
D03*
X22371Y32803D02*
D03*
X24654Y30500D02*
D03*
X24329Y33709D02*
D03*
X27600Y25800D02*
D03*
X21700Y25900D02*
D03*
X23366Y28000D02*
D03*
X22614Y27500D02*
D03*
X28500Y27700D02*
D03*
Y31105D02*
D03*
Y29600D02*
D03*
X22700Y30200D02*
D03*
X24100Y25900D02*
D03*
Y26800D02*
D03*
X22700Y29800D02*
D03*
X34000Y27300D02*
D03*
X20805Y24508D02*
D03*
X26100Y27400D02*
D03*
X34800Y30819D02*
D03*
X33400Y30300D02*
D03*
X23177Y25339D02*
D03*
X26750Y28982D02*
D03*
Y30154D02*
D03*
D31*
X28520Y24562D02*
D03*
X18000Y34000D02*
D03*
M02*
